<svg xmlns="http://www.w3.org/2000/svg" viewBox="0 0 1600 900" role="img" aria-label="Расход на ИИ на чел. (Ramp AI Index Top 1%), релизы моделей и технологические вехи, 2023–2026">
<defs>
<marker id="arrow" markerWidth="14" markerHeight="14" refX="9" refY="4" orient="auto" markerUnits="userSpaceOnUse">
<path d="M0,0 L10,4 L0,8 Z" fill="#ef4444"/>
</marker>
<marker id="arr-openai" markerWidth="10" markerHeight="8" refX="5" refY="3" orient="auto" markerUnits="userSpaceOnUse">
<path d="M0,0 L8,3 L0,6 Z" fill="#2563eb"/>
</marker>
<marker id="arr-anthropic" markerWidth="10" markerHeight="8" refX="5" refY="3" orient="auto" markerUnits="userSpaceOnUse">
<path d="M0,0 L8,3 L0,6 Z" fill="#16a34a"/>
</marker>
<marker id="arr-google" markerWidth="10" markerHeight="8" refX="5" refY="3" orient="auto" markerUnits="userSpaceOnUse">
<path d="M0,0 L8,3 L0,6 Z" fill="#d97706"/>
</marker>
<marker id="arr-qwen" markerWidth="10" markerHeight="8" refX="5" refY="3" orient="auto" markerUnits="userSpaceOnUse">
<path d="M0,0 L8,3 L0,6 Z" fill="#7c3aed"/>
</marker>
<marker id="arr-deepseek" markerWidth="10" markerHeight="8" refX="5" refY="3" orient="auto" markerUnits="userSpaceOnUse">
<path d="M0,0 L8,3 L0,6 Z" fill="#0d9488"/>
</marker>
<linearGradient id="linegrad" x1="0" y1="1" x2="1" y2="0">
<stop offset="0" stop-color="#3b82f6"/>
<stop offset="1" stop-color="#2563eb"/>
</linearGradient>
</defs>
<rect x="120.0" y="92" width="162.2" height="548" fill="#3b82f6" opacity="0.07"/>
<line x1="282.2" y1="92.0" x2="282.2" y2="640.0" stroke="#3b82f6" stroke-width="1" opacity="0.22"/>
<rect x="282.2" y="92" width="486.7" height="548" fill="#8b5cf6" opacity="0.07"/>
<line x1="768.9" y1="92.0" x2="768.9" y2="640.0" stroke="#8b5cf6" stroke-width="1" opacity="0.22"/>
<rect x="768.9" y="92" width="486.7" height="548" fill="#f59e0b" opacity="0.07"/>
<line x1="1255.6" y1="92.0" x2="1255.6" y2="640.0" stroke="#f59e0b" stroke-width="1" opacity="0.22"/>
<rect x="1255.6" y="92" width="324.4" height="548" fill="#ec4899" opacity="0.07"/>
<line x1="1580.0" y1="92.0" x2="1580.0" y2="640.0" stroke="#ec4899" stroke-width="1" opacity="0.22"/>
<line x1="120.0" y1="640.0" x2="1580.0" y2="640.0" stroke="#e5e7eb" stroke-width="1"/>
<text x="106.0" y="645.0" font-family="Inter, -apple-system, 'Segoe UI', sans-serif" font-size="15" fill="#6b7280" font-weight="400" text-anchor="end">$0</text>
<line x1="120.0" y1="585.2" x2="1580.0" y2="585.2" stroke="#e5e7eb" stroke-width="1" stroke-dasharray="3 5"/>
<text x="106.0" y="590.2" font-family="Inter, -apple-system, 'Segoe UI', sans-serif" font-size="15" fill="#6b7280" font-weight="400" text-anchor="end">$1 000</text>
<line x1="120.0" y1="530.4" x2="1580.0" y2="530.4" stroke="#e5e7eb" stroke-width="1" stroke-dasharray="3 5"/>
<text x="106.0" y="535.4" font-family="Inter, -apple-system, 'Segoe UI', sans-serif" font-size="15" fill="#6b7280" font-weight="400" text-anchor="end">$2 000</text>
<line x1="120.0" y1="475.6" x2="1580.0" y2="475.6" stroke="#e5e7eb" stroke-width="1" stroke-dasharray="3 5"/>
<text x="106.0" y="480.6" font-family="Inter, -apple-system, 'Segoe UI', sans-serif" font-size="15" fill="#6b7280" font-weight="400" text-anchor="end">$3 000</text>
<line x1="120.0" y1="420.8" x2="1580.0" y2="420.8" stroke="#e5e7eb" stroke-width="1" stroke-dasharray="3 5"/>
<text x="106.0" y="425.8" font-family="Inter, -apple-system, 'Segoe UI', sans-serif" font-size="15" fill="#6b7280" font-weight="400" text-anchor="end">$4 000</text>
<line x1="120.0" y1="366.0" x2="1580.0" y2="366.0" stroke="#e5e7eb" stroke-width="1" stroke-dasharray="3 5"/>
<text x="106.0" y="371.0" font-family="Inter, -apple-system, 'Segoe UI', sans-serif" font-size="15" fill="#6b7280" font-weight="400" text-anchor="end">$5 000</text>
<line x1="120.0" y1="311.2" x2="1580.0" y2="311.2" stroke="#e5e7eb" stroke-width="1" stroke-dasharray="3 5"/>
<text x="106.0" y="316.2" font-family="Inter, -apple-system, 'Segoe UI', sans-serif" font-size="15" fill="#6b7280" font-weight="400" text-anchor="end">$6 000</text>
<line x1="120.0" y1="256.4" x2="1580.0" y2="256.4" stroke="#e5e7eb" stroke-width="1" stroke-dasharray="3 5"/>
<text x="106.0" y="261.4" font-family="Inter, -apple-system, 'Segoe UI', sans-serif" font-size="15" fill="#6b7280" font-weight="400" text-anchor="end">$7 000</text>
<line x1="120.0" y1="201.6" x2="1580.0" y2="201.6" stroke="#e5e7eb" stroke-width="1" stroke-dasharray="3 5"/>
<text x="106.0" y="206.6" font-family="Inter, -apple-system, 'Segoe UI', sans-serif" font-size="15" fill="#6b7280" font-weight="400" text-anchor="end">$8 000</text>
<line x1="120.0" y1="146.8" x2="1580.0" y2="146.8" stroke="#e5e7eb" stroke-width="1" stroke-dasharray="3 5"/>
<text x="106.0" y="151.8" font-family="Inter, -apple-system, 'Segoe UI', sans-serif" font-size="15" fill="#6b7280" font-weight="400" text-anchor="end">$9 000</text>
<line x1="120.0" y1="92.0" x2="1580.0" y2="92.0" stroke="#e5e7eb" stroke-width="1" stroke-dasharray="3 5"/>
<text x="106.0" y="97.0" font-family="Inter, -apple-system, 'Segoe UI', sans-serif" font-size="15" fill="#6b7280" font-weight="400" text-anchor="end">$10 000</text>
<line x1="120.0" y1="92.0" x2="120.0" y2="640.0" stroke="#e5e7eb" stroke-width="1" stroke-dasharray="3 5" opacity="0.8"/>
<text x="120.0" y="668.0" font-family="Inter, -apple-system, 'Segoe UI', sans-serif" font-size="15" fill="#6b7280" font-weight="400" text-anchor="middle">сен 2023</text>
<line x1="363.3" y1="92.0" x2="363.3" y2="640.0" stroke="#e5e7eb" stroke-width="1" stroke-dasharray="3 5" opacity="0.8"/>
<text x="363.3" y="668.0" font-family="Inter, -apple-system, 'Segoe UI', sans-serif" font-size="15" fill="#6b7280" font-weight="400" text-anchor="middle">мар 2024</text>
<line x1="606.7" y1="92.0" x2="606.7" y2="640.0" stroke="#e5e7eb" stroke-width="1" stroke-dasharray="3 5" opacity="0.8"/>
<text x="606.7" y="668.0" font-family="Inter, -apple-system, 'Segoe UI', sans-serif" font-size="15" fill="#6b7280" font-weight="400" text-anchor="middle">сен 2024</text>
<line x1="850.0" y1="92.0" x2="850.0" y2="640.0" stroke="#e5e7eb" stroke-width="1" stroke-dasharray="3 5" opacity="0.8"/>
<text x="850.0" y="668.0" font-family="Inter, -apple-system, 'Segoe UI', sans-serif" font-size="15" fill="#6b7280" font-weight="400" text-anchor="middle">мар 2025</text>
<line x1="1093.3" y1="92.0" x2="1093.3" y2="640.0" stroke="#e5e7eb" stroke-width="1" stroke-dasharray="3 5" opacity="0.8"/>
<text x="1093.3" y="668.0" font-family="Inter, -apple-system, 'Segoe UI', sans-serif" font-size="15" fill="#6b7280" font-weight="400" text-anchor="middle">сен 2025</text>
<line x1="1336.7" y1="92.0" x2="1336.7" y2="640.0" stroke="#e5e7eb" stroke-width="1" stroke-dasharray="3 5" opacity="0.8"/>
<text x="1336.7" y="668.0" font-family="Inter, -apple-system, 'Segoe UI', sans-serif" font-size="15" fill="#6b7280" font-weight="400" text-anchor="middle">мар 2026</text>
<line x1="1580.0" y1="92.0" x2="1580.0" y2="640.0" stroke="#e5e7eb" stroke-width="1" stroke-dasharray="3 5" opacity="0.8"/>
<text x="1580.0" y="668.0" font-family="Inter, -apple-system, 'Segoe UI', sans-serif" font-size="15" fill="#6b7280" font-weight="400" text-anchor="end">сен 2026</text>
<text x="106.0" y="78.0" font-family="Inter, -apple-system, 'Segoe UI', sans-serif" font-size="15" fill="#6b7280" font-weight="400" text-anchor="end">$ / чел. / мес</text>
<text x="42" y="366.0" font-family="Inter, -apple-system, 'Segoe UI', sans-serif" font-size="15" fill="#6b7280" font-weight="600" text-anchor="middle" transform="rotate(-90 42 366.0)">Расход на чел. ($/мес)</text>
<rect x="152.3" y="100.0" width="97.6" height="26.0" rx="13" fill="#ffffff" stroke="#3b82f6" stroke-width="1.4"/>
<text x="201.1" y="117.5" font-family="Inter, -apple-system, 'Segoe UI', sans-serif" font-size="15" fill="#3b82f6" font-weight="600" text-anchor="middle">Чат + RAG</text>
<rect x="409.6" y="100.0" width="232.0" height="26.0" rx="13" fill="#ffffff" stroke="#8b5cf6" stroke-width="1.4"/>
<text x="525.6" y="117.5" font-family="Inter, -apple-system, 'Segoe UI', sans-serif" font-size="15" fill="#8b5cf6" font-weight="600" text-anchor="middle">ReAct + Рассуждения + MCP</text>
<rect x="938.2" y="100.0" width="148.0" height="26.0" rx="13" fill="#ffffff" stroke="#f59e0b" stroke-width="1.4"/>
<text x="1012.2" y="117.5" font-family="Inter, -apple-system, 'Segoe UI', sans-serif" font-size="15" fill="#f59e0b" font-weight="600" text-anchor="middle">Агентный кодинг</text>
<rect x="1360.6" y="100.0" width="114.4" height="26.0" rx="13" fill="#ffffff" stroke="#ec4899" stroke-width="1.4"/>
<text x="1417.8" y="117.5" font-family="Inter, -apple-system, 'Segoe UI', sans-serif" font-size="15" fill="#ec4899" font-weight="600" text-anchor="middle">To the Moon</text>
<circle cx="444.4" cy="629.0" r="6" fill="#2563eb" opacity="0.95"/>
<circle cx="606.7" cy="626.3" r="6" fill="#2563eb" opacity="0.95"/>
<circle cx="647.2" cy="625.2" r="6" fill="#16a34a" opacity="0.95"/>
<circle cx="768.9" cy="621.9" r="6" fill="#0d9488" opacity="0.95"/>
<circle cx="809.4" cy="620.3" r="6" fill="#16a34a" opacity="0.95"/>
<circle cx="890.6" cy="615.3" r="6" fill="#7c3aed" opacity="0.95"/>
<circle cx="1012.2" cy="601.6" r="6" fill="#7c3aed" opacity="0.95"/>
<circle cx="1052.8" cy="593.4" r="6" fill="#2563eb" opacity="0.95"/>
<circle cx="1174.4" cy="557.8" r="6" fill="#d97706" opacity="0.95"/>
<circle cx="1215.0" cy="541.4" r="6" fill="#7c3aed" opacity="0.95"/>
<circle cx="1296.1" cy="464.6" r="6" fill="#2563eb" opacity="0.95"/>
<polyline points="120.0,633.4 160.6,632.9 201.1,632.3 241.7,631.8 282.2,631.2 322.8,630.7 363.3,630.1 403.9,629.6 444.4,629.0 485.0,628.5 525.6,627.9 566.1,627.4 606.7,626.3 647.2,625.2 687.8,624.1 728.3,623.0 768.9,621.9 809.4,620.3 850.0,618.1 890.6,615.3 931.1,611.5 971.7,607.1 1012.2,601.6 1052.8,593.4 1093.3,585.2 1133.9,574.2 1174.4,557.8 1215.0,541.4 1255.6,504.6 1296.1,464.6 1336.7,409.8 1377.2,338.6 1417.8,283.8 1458.3,231.8 1498.9,234.5 1539.4,190.6 1580.0,146.8" fill="none" stroke="url(#linegrad)" stroke-width="3.5" stroke-linejoin="round" stroke-linecap="round"/>
<circle cx="120.0" cy="633.4" r="2.6" fill="#ffffff" stroke="#2563eb" stroke-width="1.4"/>
<circle cx="160.6" cy="632.9" r="2.6" fill="#ffffff" stroke="#2563eb" stroke-width="1.4"/>
<circle cx="201.1" cy="632.3" r="2.6" fill="#ffffff" stroke="#2563eb" stroke-width="1.4"/>
<circle cx="241.7" cy="631.8" r="2.6" fill="#ffffff" stroke="#2563eb" stroke-width="1.4"/>
<circle cx="282.2" cy="631.2" r="2.6" fill="#ffffff" stroke="#2563eb" stroke-width="1.4"/>
<circle cx="322.8" cy="630.7" r="2.6" fill="#ffffff" stroke="#2563eb" stroke-width="1.4"/>
<circle cx="363.3" cy="630.1" r="2.6" fill="#ffffff" stroke="#2563eb" stroke-width="1.4"/>
<circle cx="403.9" cy="629.6" r="2.6" fill="#ffffff" stroke="#2563eb" stroke-width="1.4"/>
<circle cx="444.4" cy="629.0" r="2.6" fill="#ffffff" stroke="#2563eb" stroke-width="1.4"/>
<circle cx="485.0" cy="628.5" r="2.6" fill="#ffffff" stroke="#2563eb" stroke-width="1.4"/>
<circle cx="525.6" cy="627.9" r="2.6" fill="#ffffff" stroke="#2563eb" stroke-width="1.4"/>
<circle cx="566.1" cy="627.4" r="2.6" fill="#ffffff" stroke="#2563eb" stroke-width="1.4"/>
<circle cx="606.7" cy="626.3" r="2.6" fill="#ffffff" stroke="#2563eb" stroke-width="1.4"/>
<circle cx="647.2" cy="625.2" r="2.6" fill="#ffffff" stroke="#2563eb" stroke-width="1.4"/>
<circle cx="687.8" cy="624.1" r="2.6" fill="#ffffff" stroke="#2563eb" stroke-width="1.4"/>
<circle cx="728.3" cy="623.0" r="2.6" fill="#ffffff" stroke="#2563eb" stroke-width="1.4"/>
<circle cx="768.9" cy="621.9" r="2.6" fill="#ffffff" stroke="#2563eb" stroke-width="1.4"/>
<circle cx="809.4" cy="620.3" r="2.6" fill="#ffffff" stroke="#2563eb" stroke-width="1.4"/>
<circle cx="850.0" cy="618.1" r="2.6" fill="#ffffff" stroke="#2563eb" stroke-width="1.4"/>
<circle cx="890.6" cy="615.3" r="2.6" fill="#ffffff" stroke="#2563eb" stroke-width="1.4"/>
<circle cx="931.1" cy="611.5" r="2.6" fill="#ffffff" stroke="#2563eb" stroke-width="1.4"/>
<circle cx="971.7" cy="607.1" r="2.6" fill="#ffffff" stroke="#2563eb" stroke-width="1.4"/>
<circle cx="1012.2" cy="601.6" r="2.6" fill="#ffffff" stroke="#2563eb" stroke-width="1.4"/>
<circle cx="1052.8" cy="593.4" r="2.6" fill="#ffffff" stroke="#2563eb" stroke-width="1.4"/>
<circle cx="1093.3" cy="585.2" r="2.6" fill="#ffffff" stroke="#2563eb" stroke-width="1.4"/>
<circle cx="1133.9" cy="574.2" r="2.6" fill="#ffffff" stroke="#2563eb" stroke-width="1.4"/>
<circle cx="1174.4" cy="557.8" r="2.6" fill="#ffffff" stroke="#2563eb" stroke-width="1.4"/>
<circle cx="1215.0" cy="541.4" r="2.6" fill="#ffffff" stroke="#2563eb" stroke-width="1.4"/>
<circle cx="1255.6" cy="504.6" r="2.6" fill="#ffffff" stroke="#2563eb" stroke-width="1.4"/>
<circle cx="1296.1" cy="464.6" r="2.6" fill="#ffffff" stroke="#2563eb" stroke-width="1.4"/>
<circle cx="1336.7" cy="409.8" r="2.6" fill="#ffffff" stroke="#2563eb" stroke-width="1.4"/>
<circle cx="1377.2" cy="338.6" r="2.6" fill="#ffffff" stroke="#2563eb" stroke-width="1.4"/>
<circle cx="1417.8" cy="283.8" r="2.6" fill="#ffffff" stroke="#2563eb" stroke-width="1.4"/>
<circle cx="1458.3" cy="231.8" r="2.6" fill="#ffffff" stroke="#2563eb" stroke-width="1.4"/>
<circle cx="1498.9" cy="234.5" r="2.6" fill="#ffffff" stroke="#2563eb" stroke-width="1.4"/>
<circle cx="1539.4" cy="190.6" r="2.6" fill="#ffffff" stroke="#2563eb" stroke-width="1.4"/>
<circle cx="1580.0" cy="146.8" r="2.6" fill="#ffffff" stroke="#2563eb" stroke-width="1.4"/>
<rect x="150.0" y="455.0" width="187.3" height="90.0" rx="10" fill="#eff6ff" stroke="#bfdbfe" stroke-width="1.5"/>
<text x="163.0" y="470.0" font-family="Inter, -apple-system, 'Segoe UI', sans-serif" font-size="16" fill="#111111" font-weight="700" text-anchor="start">ФАЗА 1: ПЛАТО</text>
<text x="163.0" y="494.0" font-family="Inter, -apple-system, 'Segoe UI', sans-serif" font-size="16" fill="#111111" font-weight="700" text-anchor="start">2023 — начало 2025</text>
<text x="163.0" y="518.0" font-family="Inter, -apple-system, 'Segoe UI', sans-serif" font-size="16" fill="#111111" font-weight="700" text-anchor="start">Чат + RAG</text>
<rect x="150.0" y="585.0" width="177.2" height="40.5" rx="10" fill="#ffffff" stroke="#3b82f6" stroke-width="1.5"/>
<text x="163.0" y="600.0" font-family="Inter, -apple-system, 'Segoe UI', sans-serif" font-size="15" fill="#2563eb" font-weight="700" text-anchor="start">≈$160 · плато 2024</text>
<line x1="321.2" y1="600.0" x2="322.8" y2="630.7" stroke="#3b82f6" stroke-width="1.2" stroke-dasharray="3 3"/>
<rect x="870.3" y="460.0" width="202.4" height="63.0" rx="10" fill="#ffffff" stroke="#ef4444" stroke-width="1.5"/>
<text x="883.3" y="475.0" font-family="Inter, -apple-system, 'Segoe UI', sans-serif" font-size="15" fill="#ef4444" font-weight="700" text-anchor="start">Рост ×4</text>
<text x="883.3" y="497.5" font-family="Inter, -apple-system, 'Segoe UI', sans-serif" font-size="15" fill="#ef4444" font-weight="700" text-anchor="start">(фев 2025 → фев 2026)</text>
<rect x="931.1" y="340.0" width="267.9" height="90.0" rx="10" fill="#fffbeb" stroke="#fde68a" stroke-width="1.5"/>
<text x="944.1" y="355.0" font-family="Inter, -apple-system, 'Segoe UI', sans-serif" font-size="16" fill="#111111" font-weight="700" text-anchor="start">ФАЗА 2: УСКОРЕНИЕ</text>
<text x="944.1" y="379.0" font-family="Inter, -apple-system, 'Segoe UI', sans-serif" font-size="16" fill="#111111" font-weight="700" text-anchor="start">середина 2025 — начало 2026</text>
<text x="944.1" y="403.0" font-family="Inter, -apple-system, 'Segoe UI', sans-serif" font-size="16" fill="#111111" font-weight="700" text-anchor="start">Агенты + MCP + Computer Use</text>
<rect x="1269.6" y="560.0" width="202.4" height="40.5" rx="10" fill="#ffffff" stroke="#3b82f6" stroke-width="1.5"/>
<text x="1282.6" y="575.0" font-family="Inter, -apple-system, 'Segoe UI', sans-serif" font-size="15" fill="#2563eb" font-weight="700" text-anchor="start">$2 470 · Ramp: ×4 г/г</text>
<line x1="1289.6" y1="560.0" x2="1255.6" y2="508.6" stroke="#3b82f6" stroke-width="1.2" stroke-dasharray="3 3"/>
<rect x="1093.3" y="150.0" width="294.8" height="114.0" rx="10" fill="#fef2f2" stroke="#fecaca" stroke-width="1.5"/>
<text x="1106.3" y="165.0" font-family="Inter, -apple-system, 'Segoe UI', sans-serif" font-size="16" fill="#ef4444" font-weight="700" text-anchor="start">ФАЗА 3: ВЗРЫВ</text>
<text x="1106.3" y="189.0" font-family="Inter, -apple-system, 'Segoe UI', sans-serif" font-size="16" fill="#ef4444" font-weight="700" text-anchor="start">середина 2026 →</text>
<text x="1106.3" y="213.0" font-family="Inter, -apple-system, 'Segoe UI', sans-serif" font-size="16" fill="#ef4444" font-weight="700" text-anchor="start">Frontier-агенты, 1M+ контекст,</text>
<text x="1106.3" y="237.0" font-family="Inter, -apple-system, 'Segoe UI', sans-serif" font-size="16" fill="#ef4444" font-weight="700" text-anchor="start">$7 400+/чел./мес</text>
<rect x="1338.0" y="155.0" width="236.0" height="40.5" rx="10" fill="#ffffff" stroke="#ef4444" stroke-width="1.5"/>
<text x="1351.0" y="170.0" font-family="Inter, -apple-system, 'Segoe UI', sans-serif" font-size="15" fill="#ef4444" font-weight="700" text-anchor="start">≈$9 000 · пик GPT-6 Astra</text>
<line x1="1568.0" y1="170.0" x2="1580.0" y2="142.8" stroke="#ef4444" stroke-width="1.2" stroke-dasharray="3 3"/>
<path d="M 1498.9 580.0 Q 1506.4 430.4 1562.0 296.8" fill="none" stroke="#ef4444" stroke-width="3" stroke-linecap="round" marker-end="url(#arrow)"/>
<rect x="412.6" y="595.0" width="63.8" height="25.0" rx="6" fill="#ffffff" opacity="0.85"/>
<text x="444.4" y="613.0" font-family="Inter, -apple-system, 'Segoe UI', sans-serif" font-size="16" fill="#2563eb" font-weight="600" text-anchor="middle">GPT-4o</text>
<line x1="444.4" y1="618.0" x2="444.4" y2="619.0" stroke="#2563eb" stroke-width="1.6" marker-end="url(#arr-openai)"/>
<rect x="592.7" y="592.3" width="27.9" height="25.0" rx="6" fill="#ffffff" opacity="0.85"/>
<text x="606.7" y="610.3" font-family="Inter, -apple-system, 'Segoe UI', sans-serif" font-size="16" fill="#2563eb" font-weight="600" text-anchor="middle">o1</text>
<line x1="606.7" y1="615.3" x2="606.7" y2="616.3" stroke="#2563eb" stroke-width="1.6" marker-end="url(#arr-openai)"/>
<rect x="628.8" y="591.2" width="36.9" height="25.0" rx="6" fill="#ffffff" opacity="0.85"/>
<text x="647.2" y="609.2" font-family="Inter, -apple-system, 'Segoe UI', sans-serif" font-size="16" fill="#16a34a" font-weight="600" text-anchor="middle">MCP</text>
<line x1="647.2" y1="614.2" x2="647.2" y2="615.2" stroke="#16a34a" stroke-width="1.6" marker-end="url(#arr-anthropic)"/>
<rect x="714.6" y="587.9" width="108.6" height="25.0" rx="6" fill="#ffffff" opacity="0.85"/>
<text x="768.9" y="605.9" font-family="Inter, -apple-system, 'Segoe UI', sans-serif" font-size="16" fill="#0d9488" font-weight="600" text-anchor="middle">DeepSeek R1</text>
<line x1="768.9" y1="610.9" x2="768.9" y2="611.9" stroke="#0d9488" stroke-width="1.6" marker-end="url(#arr-deepseek)"/>
<rect x="755.2" y="550.3" width="108.6" height="25.0" rx="6" fill="#ffffff" opacity="0.85"/>
<text x="809.4" y="568.3" font-family="Inter, -apple-system, 'Segoe UI', sans-serif" font-size="16" fill="#16a34a" font-weight="600" text-anchor="middle">Claude Code</text>
<line x1="809.4" y1="573.3" x2="809.4" y2="610.3" stroke="#16a34a" stroke-width="1.6" marker-end="url(#arr-anthropic)"/>
<rect x="863.2" y="581.3" width="54.8" height="25.0" rx="6" fill="#ffffff" opacity="0.85"/>
<text x="890.6" y="599.3" font-family="Inter, -apple-system, 'Segoe UI', sans-serif" font-size="16" fill="#7c3aed" font-weight="600" text-anchor="middle">Qwen3</text>
<line x1="890.6" y1="604.3" x2="890.6" y2="605.3" stroke="#7c3aed" stroke-width="1.6" marker-end="url(#arr-qwen)"/>
<rect x="957.9" y="567.6" width="108.6" height="25.0" rx="6" fill="#ffffff" opacity="0.85"/>
<text x="1012.2" y="585.6" font-family="Inter, -apple-system, 'Segoe UI', sans-serif" font-size="16" fill="#7c3aed" font-weight="600" text-anchor="middle">Qwen3-Coder</text>
<line x1="1012.2" y1="590.6" x2="1012.2" y2="591.6" stroke="#7c3aed" stroke-width="1.6" marker-end="url(#arr-qwen)"/>
<rect x="1025.4" y="541.4" width="54.8" height="25.0" rx="6" fill="#ffffff" opacity="0.85"/>
<text x="1052.8" y="559.4" font-family="Inter, -apple-system, 'Segoe UI', sans-serif" font-size="16" fill="#2563eb" font-weight="600" text-anchor="middle">GPT-5</text>
<line x1="1052.8" y1="564.4" x2="1052.8" y2="583.4" stroke="#2563eb" stroke-width="1.6" marker-end="url(#arr-openai)"/>
<rect x="1115.7" y="523.8" width="117.5" height="25.0" rx="6" fill="#ffffff" opacity="0.85"/>
<text x="1174.4" y="541.8" font-family="Inter, -apple-system, 'Segoe UI', sans-serif" font-size="16" fill="#d97706" font-weight="600" text-anchor="middle">Gemini 3 Pro</text>
<line x1="1174.4" y1="546.8" x2="1174.4" y2="547.8" stroke="#d97706" stroke-width="1.6" marker-end="url(#arr-google)"/>
<rect x="1178.6" y="489.4" width="72.7" height="25.0" rx="6" fill="#ffffff" opacity="0.85"/>
<text x="1215.0" y="507.4" font-family="Inter, -apple-system, 'Segoe UI', sans-serif" font-size="16" fill="#7c3aed" font-weight="600" text-anchor="middle">Qwen3.5</text>
<line x1="1215.0" y1="512.4" x2="1215.0" y2="531.4" stroke="#7c3aed" stroke-width="1.6" marker-end="url(#arr-qwen)"/>
<rect x="1232.9" y="430.6" width="126.5" height="25.0" rx="6" fill="#ffffff" opacity="0.85"/>
<text x="1296.1" y="448.6" font-family="Inter, -apple-system, 'Segoe UI', sans-serif" font-size="16" fill="#2563eb" font-weight="600" text-anchor="middle">GPT-5.3-Codex</text>
<line x1="1296.1" y1="453.6" x2="1296.1" y2="454.6" stroke="#2563eb" stroke-width="1.6" marker-end="url(#arr-openai)"/>
<line x1="120.0" y1="706.0" x2="1580.0" y2="706.0" stroke="#e5e7eb" stroke-width="1"/>
<text x="106.0" y="710.0" font-family="Inter, -apple-system, 'Segoe UI', sans-serif" font-size="12" fill="#6b7280" font-weight="400" text-anchor="end">GPU</text>
<text x="120.0" y="722.0" font-family="Inter, -apple-system, 'Segoe UI', sans-serif" font-size="11" fill="#898989" font-weight="400" text-anchor="start">A100 (2020) · H100 (2022)</text>
<rect x="279.2" y="703" width="6" height="6" fill="#475569"/>
<text x="292.2" y="722.0" font-family="Inter, -apple-system, 'Segoe UI', sans-serif" font-size="12" fill="#6b7280" font-weight="400" text-anchor="start">RTX 40 SUPER</text>
<rect x="319.8" y="703" width="6" height="6" fill="#475569"/>
<text x="332.8" y="698.0" font-family="Inter, -apple-system, 'Segoe UI', sans-serif" font-size="12" fill="#6b7280" font-weight="400" text-anchor="start">H200 · B200</text>
<rect x="644.2" y="703" width="6" height="6" fill="#475569"/>
<text x="657.2" y="722.0" font-family="Inter, -apple-system, 'Segoe UI', sans-serif" font-size="12" fill="#6b7280" font-weight="400" text-anchor="start">MI325X · MI350</text>
<rect x="725.3" y="703" width="6" height="6" fill="#475569"/>
<text x="738.3" y="698.0" font-family="Inter, -apple-system, 'Segoe UI', sans-serif" font-size="12" fill="#6b7280" font-weight="400" text-anchor="start">Arc B580</text>
<rect x="765.9" y="703" width="6" height="6" fill="#475569"/>
<text x="778.9" y="722.0" font-family="Inter, -apple-system, 'Segoe UI', sans-serif" font-size="12" fill="#6b7280" font-weight="400" text-anchor="start">RTX 5090/5080</text>
<rect x="806.4" y="703" width="6" height="6" fill="#475569"/>
<rect x="847.0" y="703" width="6" height="6" fill="#475569"/>
<text x="860.0" y="698.0" font-family="Inter, -apple-system, 'Segoe UI', sans-serif" font-size="12" fill="#6b7280" font-weight="400" text-anchor="start">RX 9070 · B300</text>
<rect x="887.6" y="703" width="6" height="6" fill="#475569"/>
<rect x="928.1" y="703" width="6" height="6" fill="#475569"/>
<text x="941.1" y="722.0" font-family="Inter, -apple-system, 'Segoe UI', sans-serif" font-size="12" fill="#6b7280" font-weight="400" text-anchor="start">RTX 5060</text>
<text x="1580.0" y="882.0" font-family="Inter, -apple-system, 'Segoe UI', sans-serif" font-size="14" fill="#898989" font-weight="400" text-anchor="end"></text>
</svg>
